<svg width="50" height="50" viewBox="0 0 50 50" fill="none" xmlns="http://www.w3.org/2000/svg">
<g clip-path="url(#clip0_1_115)">
<path d="M45.9517 10.8955L30.5892 3.57675C27.2076 1.55683 22.9986 1.52099 19.583 3.483L4.0476 10.8955C3.9893 10.9247 3.92885 10.9559 3.8726 10.9893C0.18588 13.0973 -1.094 17.7948 1.014 21.4815C1.72856 22.7313 2.77963 23.7554 4.0476 24.4372L8.33305 26.4789V36.6872C8.33559 41.2519 11.3058 45.2848 15.6643 46.6414C18.6974 47.5188 21.8424 47.9484 24.9997 47.9164C28.1566 47.9517 31.3016 47.5258 34.3352 46.6518C38.6937 45.2953 41.6639 41.2624 41.6664 36.6976V26.4747L45.8331 24.483V41.6663C45.8331 42.8169 46.7659 43.7496 47.9164 43.7496C49.067 43.7496 49.9997 42.8169 49.9997 41.6663V16.6663C50.0136 14.2199 48.082 11.96 45.9517 10.8955ZM37.4996 36.6976C37.5007 39.428 35.7292 41.8432 33.1246 42.6622C30.4834 43.4169 27.7464 43.7832 24.9996 43.7497C22.2529 43.7832 19.5159 43.4169 16.8747 42.6622C14.2701 41.8431 12.4986 39.428 12.4997 36.6976V28.4643L19.4101 31.756C21.1152 32.7685 23.0625 33.3006 25.0455 33.2956C26.933 33.309 28.7888 32.8093 30.4143 31.8498L37.4996 28.4642V36.6976ZM44.1663 20.6768L28.4538 28.1767C26.263 29.4524 23.5475 29.4163 21.3913 28.083L6.0184 20.7705C4.30483 19.8465 3.66479 17.7083 4.58881 15.9948C4.90131 15.4153 5.36986 14.935 5.94135 14.608L21.5559 7.1497C23.7474 5.87685 26.4615 5.91288 28.6184 7.24345L43.9809 14.5622C45.1107 15.1895 45.8175 16.3742 45.833 17.6664C45.835 18.8904 45.2047 20.0287 44.1663 20.6768Z" fill="#008080"/>
</g>
<defs>
<clipPath id="clip0_1_115">
<rect width="50" height="50" fill="white"/>
</clipPath>
</defs>
</svg>
