<svg width="50" height="50" viewBox="0 0 50 50" fill="none" xmlns="http://www.w3.org/2000/svg">
<g clip-path="url(#clip0_1_109)">
<path d="M38.7106 4.45981L25.6586 0.107728C25.2312 -0.0346073 24.7692 -0.0346073 24.3419 0.107728L11.2898 4.45981C9.21461 5.14915 7.40942 6.47493 6.13073 8.24879C4.85204 10.0227 4.16488 12.1544 4.16689 14.3411V25.0015C4.16689 40.7577 23.3336 49.4598 24.1544 49.8223C24.4207 49.9406 24.7088 50.0017 25.0002 50.0017C25.2916 50.0017 25.5798 49.9406 25.8461 49.8223C26.6669 49.4598 45.8336 40.7577 45.8336 25.0015V14.3411C45.8356 12.1544 45.1484 10.0227 43.8697 8.24879C42.591 6.47493 40.7858 5.14915 38.7106 4.45981ZM41.6669 25.0015C41.6669 36.3661 28.5023 43.8202 25.0002 45.6036C21.494 43.8265 8.33356 36.3952 8.33356 25.0015V14.3411C8.33368 13.0291 8.74663 11.7505 9.5139 10.6864C10.2812 9.6222 11.3639 8.82646 12.6086 8.4119L25.0002 4.28064L37.3919 8.4119C38.6366 8.82646 39.7193 9.6222 40.4865 10.6864C41.2538 11.7505 41.6668 13.0291 41.6669 14.3411V25.0015Z" fill="#FF6B6B"/>
<path d="M31.8749 17.2923L23.1499 26.0423L18.4749 21.1673C18.2873 20.9622 18.0605 20.7967 17.8079 20.6805C17.5554 20.5644 17.2821 20.5 17.0042 20.4911C16.7264 20.4822 16.4496 20.529 16.1901 20.6287C15.9306 20.7285 15.6937 20.8791 15.4934 21.0718C15.293 21.2646 15.1332 21.4954 15.0235 21.7508C14.9137 22.0062 14.8562 22.281 14.8543 22.559C14.8524 22.837 14.9061 23.1125 15.0123 23.3694C15.1186 23.6263 15.2751 23.8594 15.4728 24.0548L20.277 29.0548C20.6352 29.4418 21.0683 29.7521 21.5499 29.967C22.0315 30.1818 22.5517 30.2968 23.079 30.3048H23.1478C23.6646 30.3065 24.1766 30.2056 24.654 30.0078C25.1314 29.81 25.5648 29.5194 25.929 29.1528L34.829 20.2527C35.0234 20.0588 35.1777 19.8284 35.2831 19.5748C35.3884 19.3212 35.4428 19.0493 35.4431 18.7747C35.4434 18.5001 35.3896 18.2281 35.2848 17.9743C35.1799 17.7205 35.0261 17.4898 34.8322 17.2954C34.6382 17.1011 34.4078 16.9468 34.1542 16.8414C33.9006 16.7361 33.6288 16.6817 33.3542 16.6814C33.0796 16.6811 32.8076 16.7349 32.5538 16.8397C32.2999 16.9446 32.0693 17.0983 31.8749 17.2923Z" fill="#FF6B6B"/>
</g>
<defs>
<clipPath id="clip0_1_109">
<rect width="50" height="50" fill="white"/>
</clipPath>
</defs>
</svg>
