<svg width="95" height="23" viewBox="0 0 95 23" fill="none" xmlns="http://www.w3.org/2000/svg">
<path d="M34.7926 6.60938V4.90909H44.924V6.60938H40.8395V18H38.8707V6.60938H34.7926ZM48.013 18L45.1238 8.18182H47.0989L49.0229 15.392H49.1188L51.0492 8.18182H53.0243L54.9419 15.3601H55.0378L56.949 8.18182H58.9242L56.0414 18H54.0918L52.0975 10.9112H51.9505L49.9561 18H48.013ZM60.7379 18V8.18182H62.6491V18H60.7379ZM61.7031 6.6669C61.3707 6.6669 61.0852 6.55611 60.8466 6.33452C60.6122 6.10866 60.495 5.8402 60.495 5.52912C60.495 5.21378 60.6122 4.94531 60.8466 4.72372C61.0852 4.49787 61.3707 4.38494 61.7031 4.38494C62.0355 4.38494 62.3189 4.49787 62.5533 4.72372C62.7919 4.94531 62.9112 5.21378 62.9112 5.52912C62.9112 5.8402 62.7919 6.10866 62.5533 6.33452C62.3189 6.55611 62.0355 6.6669 61.7031 6.6669ZM69.8034 8.18182V9.71591H64.4405V8.18182H69.8034ZM65.8787 5.82955H67.79V15.1172C67.79 15.4879 67.8453 15.767 67.9561 15.9545C68.0669 16.1378 68.2097 16.2635 68.3844 16.3317C68.5634 16.3956 68.7573 16.4276 68.9661 16.4276C69.1195 16.4276 69.2537 16.4169 69.3688 16.3956C69.4838 16.3743 69.5733 16.3572 69.6373 16.3445L69.9824 17.9233C69.8716 17.9659 69.714 18.0085 69.5094 18.0511C69.3049 18.098 69.0492 18.1236 68.7424 18.1278C68.2395 18.1364 67.7708 18.0469 67.3361 17.8594C66.9015 17.6719 66.5499 17.3821 66.2814 16.9901C66.013 16.598 65.8787 16.1058 65.8787 15.5135V5.82955ZM76.5007 8.18182V9.71591H71.1378V8.18182H76.5007ZM72.576 5.82955H74.4872V15.1172C74.4872 15.4879 74.5426 15.767 74.6534 15.9545C74.7642 16.1378 74.907 16.2635 75.0817 16.3317C75.2607 16.3956 75.4545 16.4276 75.6634 16.4276C75.8168 16.4276 75.951 16.4169 76.0661 16.3956C76.1811 16.3743 76.2706 16.3572 76.3345 16.3445L76.6797 17.9233C76.5689 17.9659 76.4112 18.0085 76.2067 18.0511C76.0021 18.098 75.7464 18.1236 75.4396 18.1278C74.9368 18.1364 74.468 18.0469 74.0334 17.8594C73.5987 17.6719 73.2472 17.3821 72.9787 16.9901C72.7102 16.598 72.576 16.1058 72.576 15.5135V5.82955ZM82.7409 18.1982C81.7736 18.1982 80.9405 17.9915 80.2417 17.5781C79.5471 17.1605 79.0101 16.5746 78.6309 15.8203C78.2559 15.0618 78.0684 14.1733 78.0684 13.1548C78.0684 12.1491 78.2559 11.2628 78.6309 10.4957C79.0101 9.72869 79.5385 9.12997 80.2161 8.69957C80.8979 8.26918 81.6948 8.05398 82.6067 8.05398C83.1607 8.05398 83.6976 8.1456 84.2175 8.32884C84.7374 8.51207 85.204 8.79972 85.6174 9.19176C86.0307 9.58381 86.3567 10.093 86.5953 10.7195C86.834 11.3416 86.9533 12.098 86.9533 12.9886V13.6662H79.1486V12.2344H85.0804C85.0804 11.7315 84.9782 11.2862 84.7736 10.8984C84.5691 10.5064 84.2814 10.1974 83.9107 9.97159C83.5442 9.74574 83.1138 9.63281 82.6195 9.63281C82.0826 9.63281 81.6138 9.76491 81.2132 10.0291C80.8169 10.2891 80.5101 10.63 80.2928 11.0518C80.0797 11.4695 79.9732 11.9233 79.9732 12.4134V13.532C79.9732 14.1882 80.0882 14.7464 80.3184 15.2067C80.5527 15.6669 80.8787 16.0185 81.2963 16.2614C81.714 16.5 82.2019 16.6193 82.7601 16.6193C83.1223 16.6193 83.4526 16.5682 83.7509 16.4659C84.0492 16.3594 84.307 16.2017 84.5243 15.9929C84.7417 15.7841 84.9078 15.5263 85.0229 15.2195L86.8319 15.5455C86.687 16.0781 86.427 16.5447 86.052 16.9453C85.6813 17.3416 85.2147 17.6506 84.6522 17.8722C84.0939 18.0895 83.4569 18.1982 82.7409 18.1982ZM89.0739 18V8.18182H90.9212V9.74148H91.0234C91.2024 9.21307 91.5178 8.79758 91.9695 8.49503C92.4254 8.18821 92.9411 8.0348 93.5163 8.0348C93.6357 8.0348 93.7763 8.03906 93.9382 8.04759C94.1044 8.05611 94.2344 8.06676 94.3281 8.07955V9.90767C94.2514 9.88636 94.1151 9.86293 93.919 9.83736C93.723 9.80753 93.527 9.79261 93.331 9.79261C92.8793 9.79261 92.4766 9.88849 92.1229 10.0803C91.7734 10.2678 91.4964 10.5298 91.2919 10.8665C91.0874 11.1989 90.9851 11.5781 90.9851 12.0043V18H89.0739Z" fill="white"/>
<g clip-path="url(#clip0_1_52)">
<path d="M24.069 3.01009C24.069 3.01009 22.0448 4.20594 20.9191 4.54489C20.315 3.85023 19.512 3.35787 18.619 3.1344C17.7259 2.91094 16.7857 2.96715 15.9256 3.29543C15.0655 3.62372 14.3269 4.20824 13.8099 4.96993C13.2928 5.73163 13.0222 6.63375 13.0345 7.5543V8.55743C11.2716 8.60314 9.52479 8.21216 7.94961 7.41932C6.37442 6.62647 5.01976 5.45637 4.00627 4.01323C4.00627 4.01323 -0.00627232 13.0415 9.02195 17.054C6.95602 18.4563 4.49496 19.1595 2 19.0603C11.0282 24.076 22.0627 19.0603 22.0627 7.5242C22.0618 7.24478 22.0349 6.96605 21.9825 6.6916C23.0063 5.68193 24.069 3.01009 24.069 3.01009Z" stroke="white" stroke-width="2.5" stroke-linecap="round" stroke-linejoin="round"/>
</g>
<defs>
<clipPath id="clip0_1_52">
<rect width="26" height="22" fill="white" transform="translate(0 1)"/>
</clipPath>
</defs>
</svg>
