<svg width="119" height="24" viewBox="0 0 119 24" fill="none" xmlns="http://www.w3.org/2000/svg">
<path d="M35.4134 5.90909V19H33.4382V5.90909H35.4134ZM40.0476 13.1705V19H38.1364V9.18182H39.9709V10.7798H40.0923C40.3182 10.2599 40.6719 9.84233 41.1534 9.52699C41.6392 9.21165 42.2507 9.05398 42.9879 9.05398C43.657 9.05398 44.2429 9.1946 44.7457 9.47585C45.2486 9.75284 45.6385 10.1662 45.9155 10.7159C46.1925 11.2656 46.331 11.9453 46.331 12.755V19H44.4197V12.9851C44.4197 12.2734 44.2344 11.7173 43.8636 11.3168C43.4929 10.9119 42.9837 10.7095 42.3359 10.7095C41.8928 10.7095 41.4986 10.8054 41.1534 10.9972C40.8125 11.1889 40.5419 11.4702 40.3416 11.8409C40.1456 12.2074 40.0476 12.6506 40.0476 13.1705ZM56.2514 11.5788L54.5192 11.8857C54.4467 11.6641 54.3317 11.4531 54.174 11.2528C54.0206 11.0526 53.8118 10.8885 53.5476 10.7607C53.2834 10.6328 52.9531 10.5689 52.5568 10.5689C52.0156 10.5689 51.5639 10.6903 51.2017 10.9332C50.8395 11.1719 50.6584 11.4808 50.6584 11.8601C50.6584 12.1882 50.7798 12.4524 51.0227 12.6527C51.2656 12.853 51.6577 13.017 52.1989 13.1449L53.7585 13.5028C54.6619 13.7116 55.3352 14.0334 55.7784 14.468C56.2216 14.9027 56.4432 15.4673 56.4432 16.1619C56.4432 16.75 56.2727 17.2741 55.9318 17.7344C55.5952 18.1903 55.1243 18.5483 54.5192 18.8082C53.9183 19.0682 53.2216 19.1982 52.429 19.1982C51.3295 19.1982 50.4325 18.9638 49.7379 18.495C49.0433 18.022 48.6172 17.3509 48.4595 16.4815L50.3068 16.2003C50.4219 16.6818 50.6584 17.0462 51.0163 17.2933C51.3743 17.5362 51.8409 17.6577 52.4162 17.6577C53.0426 17.6577 53.5433 17.5277 53.9183 17.2678C54.2933 17.0036 54.4808 16.6818 54.4808 16.3026C54.4808 15.9957 54.3658 15.7379 54.1357 15.5291C53.9098 15.3203 53.5625 15.1626 53.0938 15.0561L51.4318 14.6918C50.5156 14.483 49.8381 14.1506 49.3991 13.6946C48.9645 13.2386 48.7472 12.6612 48.7472 11.9624C48.7472 11.3828 48.9091 10.8757 49.233 10.4411C49.5568 10.0064 50.0043 9.66761 50.5753 9.42472C51.1463 9.17756 51.8004 9.05398 52.5376 9.05398C53.5987 9.05398 54.4339 9.28409 55.0433 9.74432C55.6527 10.2003 56.0554 10.8118 56.2514 11.5788ZM63.1277 9.18182V10.7159H57.7647V9.18182H63.1277ZM59.2029 6.82955H61.1142V16.1172C61.1142 16.4879 61.1696 16.767 61.2804 16.9545C61.3912 17.1378 61.5339 17.2635 61.7086 17.3317C61.8876 17.3956 62.0815 17.4276 62.2903 17.4276C62.4437 17.4276 62.5779 17.4169 62.693 17.3956C62.8081 17.3743 62.8975 17.3572 62.9615 17.3445L63.3066 18.9233C63.1958 18.9659 63.0382 19.0085 62.8336 19.0511C62.6291 19.098 62.3734 19.1236 62.0666 19.1278C61.5637 19.1364 61.095 19.0469 60.6603 18.8594C60.2257 18.6719 59.8741 18.3821 59.6056 17.9901C59.3372 17.598 59.2029 17.1058 59.2029 16.5135V6.82955ZM68.0991 19.2173C67.4769 19.2173 66.9144 19.1023 66.4116 18.8722C65.9087 18.6378 65.5103 18.299 65.2163 17.8558C64.9265 17.4126 64.7816 16.8693 64.7816 16.2259C64.7816 15.6719 64.8881 15.2159 65.1012 14.858C65.3143 14.5 65.6019 14.2166 65.9641 14.0078C66.3263 13.799 66.7312 13.6413 67.1786 13.5348C67.6261 13.4283 68.082 13.3473 68.5465 13.2919C69.1346 13.2237 69.6119 13.1683 69.9783 13.1257C70.3448 13.0788 70.6112 13.0043 70.7773 12.902C70.9435 12.7997 71.0266 12.6335 71.0266 12.4034V12.3587C71.0266 11.8004 70.869 11.3679 70.5536 11.0611C70.2425 10.7543 69.7781 10.6009 69.1602 10.6009C68.5167 10.6009 68.0096 10.7436 67.6388 11.0291C67.2724 11.3104 67.0188 11.6236 66.8782 11.9688L65.082 11.5597C65.2951 10.9631 65.6062 10.4815 66.0153 10.1151C66.4286 9.74432 66.9038 9.47585 67.4407 9.30966C67.9776 9.1392 68.5423 9.05398 69.1346 9.05398C69.5266 9.05398 69.9421 9.10085 70.381 9.1946C70.8242 9.28409 71.2376 9.45028 71.6211 9.69318C72.0089 9.93608 72.3263 10.2834 72.5735 10.7351C72.8207 11.1825 72.9442 11.7642 72.9442 12.4801V19H71.0778V17.6577H71.0011C70.8775 17.9048 70.6921 18.1477 70.445 18.3864C70.1978 18.625 69.8803 18.8232 69.4925 18.9808C69.1048 19.1385 68.6403 19.2173 68.0991 19.2173ZM68.5146 17.6832C69.043 17.6832 69.4947 17.5788 69.8697 17.37C70.2489 17.1612 70.5366 16.8885 70.7326 16.5518C70.9329 16.2109 71.033 15.8466 71.033 15.4588V14.1932C70.9648 14.2614 70.8327 14.3253 70.6367 14.3849C70.445 14.4403 70.2255 14.4893 69.9783 14.532C69.7312 14.5703 69.4904 14.6065 69.256 14.6406C69.0217 14.6705 68.8256 14.696 68.668 14.7173C68.2972 14.7642 67.9585 14.843 67.6516 14.9538C67.3491 15.0646 67.1062 15.2244 66.9229 15.4332C66.744 15.6378 66.6545 15.9105 66.6545 16.2514C66.6545 16.7244 66.8292 17.0824 67.1786 17.3253C67.5281 17.5639 67.9734 17.6832 68.5146 17.6832ZM79.6064 22.8864C78.8265 22.8864 78.1554 22.7841 77.5929 22.5795C77.0346 22.375 76.5787 22.1044 76.225 21.7678C75.8713 21.4311 75.6071 21.0625 75.4324 20.6619L77.0751 19.9844C77.1902 20.1719 77.3436 20.37 77.5353 20.5788C77.7314 20.7919 77.9956 20.973 78.3279 21.1222C78.6646 21.2713 79.0971 21.3459 79.6255 21.3459C80.35 21.3459 80.9487 21.169 81.4217 20.8153C81.8947 20.4659 82.1312 19.9077 82.1312 19.1406V17.2102H82.0098C81.8947 17.419 81.7285 17.6513 81.5112 17.907C81.2981 18.1626 81.0041 18.3842 80.6291 18.5717C80.2541 18.7592 79.7662 18.853 79.1653 18.853C78.3897 18.853 77.6909 18.6719 77.0687 18.3097C76.4508 17.9432 75.9608 17.4041 75.5985 16.6925C75.2406 15.9766 75.0616 15.0966 75.0616 14.0526C75.0616 13.0085 75.2385 12.1136 75.5922 11.3679C75.9501 10.6222 76.4402 10.0511 77.0623 9.65483C77.6845 9.25426 78.3897 9.05398 79.1781 9.05398C79.7875 9.05398 80.2797 9.15625 80.6547 9.3608C81.0297 9.56108 81.3216 9.79545 81.5304 10.0639C81.7434 10.3324 81.9075 10.5689 82.0226 10.7734H82.1632V9.18182H84.036V19.2173C84.036 20.0611 83.84 20.7536 83.448 21.2947C83.0559 21.8359 82.5254 22.2365 81.8564 22.4964C81.1916 22.7564 80.4416 22.8864 79.6064 22.8864ZM79.5872 17.2678C80.1369 17.2678 80.6014 17.1399 80.9806 16.8842C81.3642 16.6243 81.6539 16.2536 81.85 15.772C82.0502 15.2862 82.1504 14.7045 82.1504 14.027C82.1504 13.3665 82.0524 12.7848 81.8564 12.282C81.6603 11.7791 81.3727 11.3871 80.9934 11.1058C80.6142 10.8203 80.1454 10.6776 79.5872 10.6776C79.0119 10.6776 78.5325 10.8267 78.149 11.125C77.7654 11.419 77.4757 11.8196 77.2797 12.3267C77.0879 12.8338 76.992 13.4006 76.992 14.027C76.992 14.6705 77.09 15.2351 77.286 15.7209C77.4821 16.2067 77.7718 16.5859 78.1554 16.8587C78.5431 17.1314 79.0204 17.2678 79.5872 17.2678ZM86.5993 19V9.18182H88.4466V10.7415H88.5488C88.7278 10.2131 89.0431 9.79758 89.4949 9.49503C89.9508 9.18821 90.4664 9.0348 91.0417 9.0348C91.161 9.0348 91.3017 9.03906 91.4636 9.04759C91.6298 9.05611 91.7598 9.06676 91.8535 9.07955V10.9077C91.7768 10.8864 91.6404 10.8629 91.4444 10.8374C91.2484 10.8075 91.0524 10.7926 90.8564 10.7926C90.4047 10.7926 90.002 10.8885 89.6483 11.0803C89.2988 11.2678 89.0218 11.5298 88.8173 11.8665C88.6127 12.1989 88.5105 12.5781 88.5105 13.0043V19H86.5993ZM96.2768 19.2173C95.6547 19.2173 95.0922 19.1023 94.5893 18.8722C94.0865 18.6378 93.688 18.299 93.394 17.8558C93.1042 17.4126 92.9593 16.8693 92.9593 16.2259C92.9593 15.6719 93.0659 15.2159 93.2789 14.858C93.492 14.5 93.7797 14.2166 94.1419 14.0078C94.5041 13.799 94.9089 13.6413 95.3564 13.5348C95.8038 13.4283 96.2598 13.3473 96.7243 13.2919C97.3123 13.2237 97.7896 13.1683 98.1561 13.1257C98.5226 13.0788 98.7889 13.0043 98.9551 12.902C99.1213 12.7997 99.2044 12.6335 99.2044 12.4034V12.3587C99.2044 11.8004 99.0467 11.3679 98.7314 11.0611C98.4203 10.7543 97.9558 10.6009 97.3379 10.6009C96.6944 10.6009 96.1873 10.7436 95.8166 11.0291C95.4501 11.3104 95.1966 11.6236 95.0559 11.9688L93.2598 11.5597C93.4728 10.9631 93.7839 10.4815 94.193 10.1151C94.6064 9.74432 95.0815 9.47585 95.6184 9.30966C96.1554 9.1392 96.72 9.05398 97.3123 9.05398C97.7044 9.05398 98.1199 9.10085 98.5588 9.1946C99.002 9.28409 99.4153 9.45028 99.7988 9.69318C100.187 9.93608 100.504 10.2834 100.751 10.7351C100.998 11.1825 101.122 11.7642 101.122 12.4801V19H99.2555V17.6577H99.1788C99.0552 17.9048 98.8699 18.1477 98.6227 18.3864C98.3755 18.625 98.0581 18.8232 97.6703 18.9808C97.2825 19.1385 96.818 19.2173 96.2768 19.2173ZM96.6923 17.6832C97.2207 17.6832 97.6724 17.5788 98.0474 17.37C98.4267 17.1612 98.7143 16.8885 98.9103 16.5518C99.1106 16.2109 99.2108 15.8466 99.2108 15.4588V14.1932C99.1426 14.2614 99.0105 14.3253 98.8145 14.3849C98.6227 14.4403 98.4032 14.4893 98.1561 14.532C97.9089 14.5703 97.6681 14.6065 97.4338 14.6406C97.1994 14.6705 97.0034 14.696 96.8457 14.7173C96.475 14.7642 96.1362 14.843 95.8294 14.9538C95.5268 15.0646 95.2839 15.2244 95.1007 15.4332C94.9217 15.6378 94.8322 15.9105 94.8322 16.2514C94.8322 16.7244 95.0069 17.0824 95.3564 17.3253C95.7058 17.5639 96.1511 17.6832 96.6923 17.6832ZM103.668 19V9.18182H105.502V10.7798H105.624C105.828 10.2386 106.163 9.81676 106.627 9.5142C107.092 9.20739 107.648 9.05398 108.295 9.05398C108.952 9.05398 109.501 9.20739 109.945 9.5142C110.392 9.82102 110.722 10.2429 110.935 10.7798H111.038C111.272 10.2557 111.645 9.83807 112.156 9.52699C112.668 9.21165 113.277 9.05398 113.984 9.05398C114.875 9.05398 115.602 9.3331 116.164 9.89134C116.731 10.4496 117.014 11.2912 117.014 12.4162V19H115.103V12.5952C115.103 11.9304 114.922 11.4489 114.56 11.1506C114.197 10.8523 113.765 10.7031 113.262 10.7031C112.64 10.7031 112.156 10.8949 111.811 11.2784C111.466 11.6577 111.293 12.1456 111.293 12.7422V19H109.388V12.4737C109.388 11.9411 109.222 11.5128 108.89 11.1889C108.558 10.8651 108.125 10.7031 107.592 10.7031C107.23 10.7031 106.896 10.799 106.589 10.9908C106.286 11.1783 106.041 11.4403 105.854 11.777C105.67 12.1136 105.579 12.5036 105.579 12.9467V19H103.668Z" fill="white"/>
<g clip-path="url(#clip0_1_57)">
<path d="M12 16.4446C14.4545 16.4446 16.4444 14.4547 16.4444 12.0001C16.4444 9.54551 14.4545 7.55566 12 7.55566C9.54539 7.55566 7.55554 9.54551 7.55554 12.0001C7.55554 14.4547 9.54539 16.4446 12 16.4446Z" stroke="white" stroke-width="2.3" stroke-linecap="round" stroke-linejoin="round"/>
<path d="M2 16.4444V7.55556C2 4.48731 4.48731 2 7.55556 2H16.4444C19.5127 2 22 4.48731 22 7.55556V16.4444C22 19.5127 19.5127 22 16.4444 22H7.55556C4.48731 22 2 19.5127 2 16.4444Z" stroke="white" stroke-width="2.5"/>
<path d="M18.1111 5.90071L18.1228 5.8877" stroke="white" stroke-width="2.5" stroke-linecap="round" stroke-linejoin="round"/>
</g>
<defs>
<clipPath id="clip0_1_57">
<rect width="24" height="24" fill="white"/>
</clipPath>
</defs>
</svg>
