<svg width="117" height="22" viewBox="0 0 117 22" fill="none" xmlns="http://www.w3.org/2000/svg">
<path d="M33.4382 18V4.90909H41.5561V6.60938H35.4134V10.598H40.9744V12.2919H35.4134V18H33.4382ZM46.6538 18.2173C46.0316 18.2173 45.4691 18.1023 44.9663 17.8722C44.4634 17.6378 44.065 17.299 43.771 16.8558C43.4812 16.4126 43.3363 15.8693 43.3363 15.2259C43.3363 14.6719 43.4428 14.2159 43.6559 13.858C43.869 13.5 44.1566 13.2166 44.5188 13.0078C44.881 12.799 45.2859 12.6413 45.7333 12.5348C46.1808 12.4283 46.6367 12.3473 47.1012 12.2919C47.6893 12.2237 48.1665 12.1683 48.533 12.1257C48.8995 12.0788 49.1658 12.0043 49.332 11.902C49.4982 11.7997 49.5813 11.6335 49.5813 11.4034V11.3587C49.5813 10.8004 49.4237 10.3679 49.1083 10.0611C48.7972 9.75426 48.3327 9.60085 47.7148 9.60085C47.0714 9.60085 46.5643 9.74361 46.1935 10.0291C45.8271 10.3104 45.5735 10.6236 45.4329 10.9688L43.6367 10.5597C43.8498 9.96307 44.1609 9.48153 44.57 9.11506C44.9833 8.74432 45.4585 8.47585 45.9954 8.30966C46.5323 8.1392 47.0969 8.05398 47.6893 8.05398C48.0813 8.05398 48.4968 8.10085 48.9357 8.1946C49.3789 8.28409 49.7923 8.45028 50.1758 8.69318C50.5636 8.93608 50.881 9.28338 51.1282 9.73509C51.3754 10.1825 51.4989 10.7642 51.4989 11.4801V18H49.6325V16.6577H49.5558C49.4322 16.9048 49.2468 17.1477 48.9996 17.3864C48.7525 17.625 48.435 17.8232 48.0472 17.9808C47.6594 18.1385 47.195 18.2173 46.6538 18.2173ZM47.0692 16.6832C47.5977 16.6832 48.0494 16.5788 48.4244 16.37C48.8036 16.1612 49.0913 15.8885 49.2873 15.5518C49.4876 15.2109 49.5877 14.8466 49.5877 14.4588V13.1932C49.5195 13.2614 49.3874 13.3253 49.1914 13.3849C48.9996 13.4403 48.7802 13.4893 48.533 13.532C48.2859 13.5703 48.0451 13.6065 47.8107 13.6406C47.5763 13.6705 47.3803 13.696 47.2227 13.7173C46.8519 13.7642 46.5131 13.843 46.2063 13.9538C45.9038 14.0646 45.6609 14.2244 45.4776 14.4332C45.2987 14.6378 45.2092 14.9105 45.2092 15.2514C45.2092 15.7244 45.3839 16.0824 45.7333 16.3253C46.0827 16.5639 46.5281 16.6832 47.0692 16.6832ZM58.1802 18.1982C57.2299 18.1982 56.4118 17.983 55.7257 17.5526C55.0439 17.1179 54.5197 16.5192 54.1532 15.7564C53.7868 14.9936 53.6035 14.12 53.6035 13.1357C53.6035 12.1385 53.791 11.2585 54.166 10.4957C54.541 9.72869 55.0694 9.12997 55.7512 8.69957C56.4331 8.26918 57.2363 8.05398 58.161 8.05398C58.9068 8.05398 59.5716 8.19247 60.1554 8.46946C60.7392 8.74219 61.21 9.12571 61.568 9.62003C61.9302 10.1143 62.1454 10.6918 62.2136 11.3523H60.3535C60.2512 10.892 60.0169 10.4957 59.6504 10.1634C59.2882 9.83097 58.8024 9.66477 58.193 9.66477C57.6603 9.66477 57.1937 9.8054 56.7931 10.0866C56.3968 10.3636 56.0879 10.7599 55.8663 11.2756C55.6447 11.7869 55.5339 12.392 55.5339 13.0909C55.5339 13.8068 55.6426 14.4247 55.8599 14.9446C56.0772 15.4645 56.3841 15.8672 56.7804 16.1527C57.1809 16.4382 57.6518 16.581 58.193 16.581C58.5552 16.581 58.8833 16.5149 59.1774 16.3828C59.4757 16.2464 59.725 16.0526 59.9252 15.8011C60.1298 15.5497 60.2725 15.2472 60.3535 14.8935H62.2136C62.1454 15.5284 61.9387 16.0952 61.5936 16.5938C61.2484 17.0923 60.786 17.4844 60.2065 17.7699C59.6312 18.0554 58.9558 18.1982 58.1802 18.1982ZM68.489 18.1982C67.5217 18.1982 66.6886 17.9915 65.9897 17.5781C65.2951 17.1605 64.7582 16.5746 64.3789 15.8203C64.0039 15.0618 63.8164 14.1733 63.8164 13.1548C63.8164 12.1491 64.0039 11.2628 64.3789 10.4957C64.7582 9.72869 65.2866 9.12997 65.9641 8.69957C66.646 8.26918 67.4428 8.05398 68.3548 8.05398C68.9087 8.05398 69.4457 8.1456 69.9656 8.32884C70.4854 8.51207 70.9521 8.79972 71.3654 9.19176C71.7788 9.58381 72.1048 10.093 72.3434 10.7195C72.582 11.3416 72.7014 12.098 72.7014 12.9886V13.6662H64.8967V12.2344H70.8285C70.8285 11.7315 70.7262 11.2862 70.5217 10.8984C70.3171 10.5064 70.0295 10.1974 69.6587 9.97159C69.2923 9.74574 68.8619 9.63281 68.3675 9.63281C67.8306 9.63281 67.3619 9.76491 66.9613 10.0291C66.565 10.2891 66.2582 10.63 66.0408 11.0518C65.8278 11.4695 65.7212 11.9233 65.7212 12.4134V13.532C65.7212 14.1882 65.8363 14.7464 66.0664 15.2067C66.3008 15.6669 66.6268 16.0185 67.0444 16.2614C67.462 16.5 67.9499 16.6193 68.5082 16.6193C68.8704 16.6193 69.2006 16.5682 69.4989 16.4659C69.7972 16.3594 70.055 16.2017 70.2724 15.9929C70.4897 15.7841 70.6559 15.5263 70.771 15.2195L72.5799 15.5455C72.435 16.0781 72.1751 16.5447 71.8001 16.9453C71.4293 17.3416 70.9627 17.6506 70.4002 17.8722C69.842 18.0895 69.2049 18.1982 68.489 18.1982ZM74.9753 18V4.90909H76.8865V9.77344H77.0016C77.1124 9.56889 77.2722 9.33239 77.481 9.06392C77.6898 8.79545 77.9796 8.56108 78.3503 8.3608C78.7211 8.15625 79.2111 8.05398 79.8205 8.05398C80.6131 8.05398 81.3205 8.25426 81.9426 8.65483C82.5648 9.0554 83.0527 9.63281 83.4064 10.3871C83.7644 11.1413 83.9434 12.049 83.9434 13.1101C83.9434 14.1712 83.7665 15.081 83.4128 15.8395C83.0591 16.5937 82.5733 17.1754 81.9554 17.5845C81.3375 17.9893 80.6323 18.1918 79.8397 18.1918C79.2431 18.1918 78.7551 18.0916 78.3759 17.8913C78.0009 17.6911 77.7069 17.4567 77.4938 17.1882C77.2807 16.9197 77.1167 16.6811 77.0016 16.4723H76.8418V18H74.9753ZM76.8482 13.0909C76.8482 13.7812 76.9483 14.3864 77.1486 14.9062C77.3489 15.4261 77.6387 15.8331 78.0179 16.1271C78.3972 16.4169 78.8617 16.5618 79.4114 16.5618C79.9824 16.5618 80.4597 16.4105 80.8432 16.108C81.2267 15.8011 81.5165 15.3857 81.7125 14.8615C81.9128 14.3374 82.013 13.7472 82.013 13.0909C82.013 12.4432 81.915 11.8615 81.7189 11.3459C81.5272 10.8303 81.2374 10.4233 80.8496 10.125C80.4661 9.8267 79.9867 9.67756 79.4114 9.67756C78.8574 9.67756 78.3887 9.82031 78.0051 10.1058C77.6259 10.3913 77.3382 10.7898 77.1422 11.3011C76.9462 11.8125 76.8482 12.4091 76.8482 13.0909ZM90.2251 18.1982C89.3047 18.1982 88.5014 17.9872 87.8153 17.5653C87.1293 17.1435 86.5966 16.5533 86.2173 15.7947C85.8381 15.0362 85.6484 14.1499 85.6484 13.1357C85.6484 12.1172 85.8381 11.2266 86.2173 10.4638C86.5966 9.70099 87.1293 9.10866 87.8153 8.68679C88.5014 8.26491 89.3047 8.05398 90.2251 8.05398C91.1456 8.05398 91.9489 8.26491 92.6349 8.68679C93.321 9.10866 93.8537 9.70099 94.233 10.4638C94.6122 11.2266 94.8018 12.1172 94.8018 13.1357C94.8018 14.1499 94.6122 15.0362 94.233 15.7947C93.8537 16.5533 93.321 17.1435 92.6349 17.5653C91.9489 17.9872 91.1456 18.1982 90.2251 18.1982ZM90.2315 16.5938C90.8281 16.5938 91.3224 16.4361 91.7145 16.1207C92.1065 15.8054 92.3963 15.3857 92.5838 14.8615C92.7756 14.3374 92.8714 13.7599 92.8714 13.1293C92.8714 12.5028 92.7756 11.9276 92.5838 11.4034C92.3963 10.875 92.1065 10.451 91.7145 10.1314C91.3224 9.81179 90.8281 9.65199 90.2315 9.65199C89.6307 9.65199 89.1321 9.81179 88.7358 10.1314C88.3438 10.451 88.0518 10.875 87.8601 11.4034C87.6726 11.9276 87.5788 12.5028 87.5788 13.1293C87.5788 13.7599 87.6726 14.3374 87.8601 14.8615C88.0518 15.3857 88.3438 15.8054 88.7358 16.1207C89.1321 16.4361 89.6307 16.5938 90.2315 16.5938ZM101.071 18.1982C100.15 18.1982 99.3471 17.9872 98.661 17.5653C97.975 17.1435 97.4423 16.5533 97.063 15.7947C96.6838 15.0362 96.4941 14.1499 96.4941 13.1357C96.4941 12.1172 96.6838 11.2266 97.063 10.4638C97.4423 9.70099 97.975 9.10866 98.661 8.68679C99.3471 8.26491 100.15 8.05398 101.071 8.05398C101.991 8.05398 102.795 8.26491 103.481 8.68679C104.167 9.10866 104.699 9.70099 105.079 10.4638C105.458 11.2266 105.648 12.1172 105.648 13.1357C105.648 14.1499 105.458 15.0362 105.079 15.7947C104.699 16.5533 104.167 17.1435 103.481 17.5653C102.795 17.9872 101.991 18.1982 101.071 18.1982ZM101.077 16.5938C101.674 16.5938 102.168 16.4361 102.56 16.1207C102.952 15.8054 103.242 15.3857 103.43 14.8615C103.621 14.3374 103.717 13.7599 103.717 13.1293C103.717 12.5028 103.621 11.9276 103.43 11.4034C103.242 10.875 102.952 10.451 102.56 10.1314C102.168 9.81179 101.674 9.65199 101.077 9.65199C100.476 9.65199 99.9778 9.81179 99.5815 10.1314C99.1895 10.451 98.8975 10.875 98.7058 11.4034C98.5183 11.9276 98.4245 12.5028 98.4245 13.1293C98.4245 13.7599 98.5183 14.3374 98.7058 14.8615C98.8975 15.3857 99.1895 15.8054 99.5815 16.1207C99.9778 16.4361 100.476 16.5938 101.077 16.5938ZM109.539 14.6697L109.526 12.3366H109.858L113.77 8.18182H116.059L111.597 12.9119H111.297L109.539 14.6697ZM107.781 18V4.90909H109.692V18H107.781ZM113.981 18L110.466 13.3338L111.782 11.9979L116.327 18H113.981Z" fill="white"/>
<g clip-path="url(#clip0_1_47)">
<path d="M17 1H14C12.6739 1 11.4021 1.52678 10.4645 2.46447C9.52678 3.40215 9 4.67392 9 6V9H6V13H9V21H13V13H16L17 9H13V6C13 5.73478 13.1054 5.48043 13.2929 5.29289C13.4804 5.10536 13.7348 5 14 5H17V1Z" stroke="white" stroke-width="2.3" stroke-linecap="round" stroke-linejoin="round"/>
</g>
<defs>
<clipPath id="clip0_1_47">
<rect width="22" height="22" fill="white"/>
</clipPath>
</defs>
</svg>
