<svg width="158" height="34" viewBox="0 0 158 34" fill="none" xmlns="http://www.w3.org/2000/svg">
<path d="M1.59375 27C1.04146 27 0.59375 26.5523 0.59375 26V3.27273C0.59375 2.72044 1.04147 2.27273 1.59375 2.27273H11.267C13.1023 2.27273 14.7081 2.63494 16.0845 3.35938C17.4609 4.08381 18.5315 5.10204 19.2962 6.41406C20.0608 7.72609 20.4432 9.25947 20.4432 11.0142C20.4432 12.785 20.0488 14.3184 19.2599 15.6143C18.4792 16.9103 17.3804 17.9084 15.9638 18.6087C14.5552 19.309 12.9091 19.6591 11.0256 19.6591H5.65057C5.09828 19.6591 4.65057 19.2114 4.65057 18.6591V15.4432C4.65057 14.8909 5.09828 14.4432 5.65057 14.4432H9.6733C10.4621 14.4432 11.1342 14.3063 11.6896 14.0327C12.2531 13.7509 12.6837 13.3525 12.9815 12.8374C13.2874 12.3222 13.4403 11.7145 13.4403 11.0142C13.4403 10.3059 13.2874 9.70218 12.9815 9.20312C12.6837 8.69602 12.2531 8.30966 11.6896 8.04403C11.1342 7.77036 10.4621 7.63352 9.6733 7.63352H8.30682C7.75453 7.63352 7.30682 8.08124 7.30682 8.63352V26C7.30682 26.5523 6.8591 27 6.30682 27H1.59375Z" fill="#2B2B2B"/>
<path d="M23.3228 27C22.7706 27 22.3228 26.5523 22.3228 26V9.45454C22.3228 8.90226 22.7706 8.45455 23.3228 8.45455H27.7944C28.3467 8.45455 28.7944 8.90226 28.7944 9.45455V11.8712C28.7944 11.9314 28.8432 11.9801 28.9033 11.9801C28.953 11.9801 28.9963 11.9464 29.0092 11.8984C29.3482 10.6362 29.8763 9.70963 30.5934 9.11861C31.334 8.51491 32.1993 8.21307 33.1893 8.21307C33.4791 8.21307 33.7648 8.23722 34.0466 8.28551C34.0835 8.29065 34.1203 8.29611 34.1569 8.3019C34.5921 8.37078 34.8797 8.76791 34.8797 9.2085V12.9056C34.8797 13.5175 34.268 13.9708 33.6602 13.8999C33.1772 13.8435 32.7627 13.8153 32.4166 13.8153C31.7646 13.8153 31.177 13.9643 30.6538 14.2621C30.1387 14.5518 29.7322 14.9624 29.4343 15.4936C29.1365 16.0168 28.9876 16.6326 28.9876 17.3409V26C28.9876 26.5523 28.5399 27 27.9876 27H23.3228Z" fill="#2B2B2B"/>
<path d="M44.2572 27.3381C42.2449 27.3381 40.5223 26.9396 39.0896 26.1428C37.6568 25.3378 36.5581 24.219 35.7934 22.7862C35.0287 21.3454 34.6464 19.6752 34.6464 17.7756C34.6464 15.8759 35.0287 14.2098 35.7934 12.777C36.5581 11.3362 37.6568 10.2173 39.0896 9.42045C40.5223 8.61553 42.2449 8.21307 44.2572 8.21307C46.2695 8.21307 47.992 8.61553 49.4248 9.42045C50.8576 10.2173 51.9563 11.3362 52.721 12.777C53.4856 14.2098 53.868 15.8759 53.868 17.7756C53.868 19.6752 53.4856 21.3454 52.721 22.7862C51.9563 24.219 50.8576 25.3378 49.4248 26.1428C47.992 26.9396 46.2695 27.3381 44.2572 27.3381ZM44.3055 22.4119C44.8689 22.4119 45.3559 22.2228 45.7664 21.8445C46.1769 21.4661 46.4949 20.9268 46.7203 20.2266C46.9456 19.5263 47.0583 18.6932 47.0583 17.7273C47.0583 16.7533 46.9456 15.9202 46.7203 15.228C46.4949 14.5277 46.1769 13.9884 45.7664 13.6101C45.3559 13.2318 44.8689 13.0426 44.3055 13.0426C43.7098 13.0426 43.1987 13.2318 42.7721 13.6101C42.3455 13.9884 42.0195 14.5277 41.7941 15.228C41.5687 15.9202 41.4561 16.7533 41.4561 17.7273C41.4561 18.6932 41.5687 19.5263 41.7941 20.2266C42.0195 20.9268 42.3455 21.4661 42.7721 21.8445C43.1987 22.2228 43.7098 22.4119 44.3055 22.4119Z" fill="#2B2B2B"/>
<path d="M72.7263 13.4572C72.8342 14.0152 72.3708 14.4915 71.8024 14.4915H67.6292C67.1098 14.4915 66.7075 14.0602 66.4076 13.6361C66.378 13.5941 66.3462 13.5533 66.3123 13.5135C66.0788 13.2398 65.777 13.0305 65.4067 12.8857C65.0445 12.7327 64.6421 12.6562 64.1993 12.6562C63.6278 12.6562 63.1368 12.7609 62.7263 12.9702C62.3158 13.1795 62.1146 13.4773 62.1226 13.8636C62.1146 14.1373 62.2313 14.3909 62.4728 14.6243C62.7223 14.8577 63.2012 15.0388 63.9096 15.1676L67.6766 15.8438C69.5762 16.1899 70.9889 16.7734 71.9145 17.5945C72.8483 18.4074 73.3191 19.4981 73.3272 20.8665C73.3191 22.1866 72.9247 23.3336 72.144 24.3075C71.3712 25.2734 70.3127 26.022 68.9685 26.5533C67.6323 27.0765 66.107 27.3381 64.3925 27.3381C61.5592 27.3381 59.3416 26.7585 57.7398 25.5994C56.4614 24.6697 55.6362 23.5017 55.2641 22.0955C55.1131 21.5246 55.5831 21.0114 56.1737 21.0114H60.8274C61.3221 21.0114 61.713 21.3984 61.9841 21.8123C62.1276 22.0315 62.3187 22.2193 62.5573 22.3757C63.0564 22.6896 63.6842 22.8466 64.4408 22.8466C65.0526 22.8466 65.5556 22.742 65.9501 22.5327C66.3525 22.3234 66.5578 22.0256 66.5658 21.6392C66.5578 21.285 66.3807 21.0033 66.0346 20.794C65.6965 20.5848 65.1653 20.4157 64.4408 20.2869L61.1567 19.7074C59.2652 19.3774 57.8485 18.7495 56.9067 17.8239C55.965 16.8982 55.4981 15.7069 55.5062 14.25C55.4981 12.9621 55.8362 11.8714 56.5204 10.978C57.2126 10.0765 58.1986 9.39228 59.4785 8.92543C60.7663 8.45052 62.2917 8.21307 64.0545 8.21307C66.7349 8.21307 68.8478 8.76847 70.3932 9.87926C71.6628 10.787 72.4404 11.9797 72.7263 13.4572Z" fill="#2B2B2B"/>
<path d="M76.2008 33.9545C75.6485 33.9545 75.2008 33.5068 75.2008 32.9545V9.45455C75.2008 8.90226 75.6485 8.45455 76.2008 8.45455H80.8173C81.3696 8.45455 81.8173 8.90226 81.8173 9.45455V11.6044C81.8173 11.6519 81.8557 11.6903 81.9032 11.6903C81.9387 11.6903 81.9705 11.6684 81.9837 11.6354C82.2245 11.0289 82.5715 10.4717 83.0247 9.96378C83.4915 9.43253 84.0711 9.00994 84.7633 8.69602C85.4555 8.37405 86.2605 8.21307 87.1781 8.21307C88.4016 8.21307 89.5647 8.53906 90.6674 9.19105C91.7782 9.84304 92.6797 10.8693 93.372 12.2699C94.0723 13.6705 94.4224 15.4896 94.4224 17.7273C94.4224 19.8684 94.0884 21.6432 93.4203 23.0518C92.7602 24.4605 91.8748 25.5109 90.764 26.2031C89.6613 26.8954 88.4499 27.2415 87.1298 27.2415C86.2605 27.2415 85.4837 27.1006 84.7995 26.8189C84.1234 26.5291 83.5439 26.1387 83.0609 25.6477C82.595 25.1582 82.2337 24.6067 81.977 23.9932C81.968 23.9716 81.9469 23.9574 81.9234 23.9574C81.8915 23.9574 81.8656 23.9833 81.8656 24.0152V32.9545C81.8656 33.5068 81.4179 33.9545 80.8656 33.9545H76.2008ZM81.7207 17.7273C81.7207 18.6288 81.8374 19.4096 82.0708 20.0696C82.3123 20.7216 82.6504 21.2287 83.085 21.5909C83.5278 21.9451 84.055 22.1222 84.6667 22.1222C85.2785 22.1222 85.7976 21.9491 86.2242 21.603C86.6589 21.2488 86.9889 20.7457 87.2143 20.0938C87.4477 19.4337 87.5644 18.6449 87.5644 17.7273C87.5644 16.8097 87.4477 16.0249 87.2143 15.3729C86.9889 14.7128 86.6589 14.2098 86.2242 13.8636C85.7976 13.5095 85.2785 13.3324 84.6667 13.3324C84.055 13.3324 83.5278 13.5095 83.085 13.8636C82.6504 14.2098 82.3123 14.7128 82.0708 15.3729C81.8374 16.0249 81.7207 16.8097 81.7207 17.7273Z" fill="#2B2B2B"/>
<path d="M105.421 27.3381C103.441 27.3381 101.734 26.9598 100.302 26.2031C98.8768 25.4384 97.7781 24.3438 97.0054 22.919C96.2407 21.4863 95.8583 19.7718 95.8583 17.7756C95.8583 15.8598 96.2447 14.1856 97.0174 12.7528C97.7902 11.3201 98.8808 10.2053 100.289 9.40838C101.698 8.61151 103.36 8.21307 105.276 8.21307C106.677 8.21307 107.944 8.4304 109.079 8.86506C110.214 9.29972 111.184 9.93158 111.989 10.7607C112.794 11.5817 113.414 12.5798 113.848 13.755C114.283 14.9302 114.5 16.2543 114.5 17.7273V18.2727C114.5 18.825 114.053 19.2727 113.5 19.2727H98.9351C98.3828 19.2727 97.9351 18.825 97.9351 18.2727V16.6023C97.9351 16.05 98.3828 15.6023 98.9351 15.6023H107.352C107.91 15.6023 108.386 15.128 108.173 14.6117C108.114 14.4683 108.042 14.3317 107.956 14.2017C107.699 13.7912 107.349 13.4732 106.906 13.2479C106.471 13.0144 105.976 12.8977 105.421 12.8977C104.882 12.8977 104.387 13.0144 103.936 13.2479C103.485 13.4732 103.123 13.7872 102.849 14.1896C102.583 14.5921 102.443 15.063 102.427 15.6023V19.5625C102.427 20.1581 102.551 20.6894 102.801 21.1562C103.05 21.6231 103.409 21.9893 103.875 22.255C104.342 22.5206 104.906 22.6534 105.566 22.6534C106.025 22.6534 106.443 22.589 106.821 22.4602C107.208 22.3314 107.538 22.1463 107.811 21.9048C107.91 21.815 107.999 21.7188 108.079 21.6164C108.336 21.2868 108.692 21.0114 109.11 21.0114H113.325C113.941 21.0114 114.416 21.5672 114.226 22.1533C113.959 22.9724 113.556 23.7106 113.015 24.3679C112.235 25.3097 111.2 26.0421 109.912 26.5653C108.632 27.0805 107.135 27.3381 105.421 27.3381Z" fill="#2B2B2B"/>
<path d="M117.54 27C116.988 27 116.54 26.5523 116.54 26V9.45454C116.54 8.90226 116.988 8.45455 117.54 8.45455H122.012C122.564 8.45455 123.012 8.90226 123.012 9.45455V11.8712C123.012 11.9314 123.06 11.9801 123.121 11.9801C123.17 11.9801 123.213 11.9464 123.226 11.8985C123.565 10.6362 124.094 9.70963 124.811 9.11861C125.551 8.51491 126.416 8.21307 127.407 8.21307C127.696 8.21307 127.982 8.23722 128.264 8.28551C128.301 8.29065 128.338 8.29611 128.374 8.3019C128.809 8.37079 129.097 8.76791 129.097 9.2085V12.9056C129.097 13.5175 128.485 13.9708 127.877 13.8999C127.394 13.8435 126.98 13.8153 126.634 13.8153C125.982 13.8153 125.394 13.9643 124.871 14.2621C124.356 14.5518 123.949 14.9624 123.652 15.4936C123.354 16.0168 123.205 16.6326 123.205 17.3409V26C123.205 26.5523 122.757 27 122.205 27H117.54Z" fill="#2B2B2B"/>
<path d="M131.602 27C131.05 27 130.602 26.5523 130.602 26V9.45454C130.602 8.90226 131.05 8.45455 131.602 8.45455H136.267C136.819 8.45455 137.267 8.90226 137.267 9.45455V26C137.267 26.5523 136.819 27 136.267 27H131.602ZM134 6C133.477 6 132.434 6 131.65 6C131.098 6 130.651 5.55256 130.651 5.00027C130.651 4.48623 130.651 3.8845 130.651 3.48011C130.651 3.01648 130.651 2.13311 130.651 1.43715C130.651 0.884866 131.098 0.4375 131.65 0.4375C132.413 0.4375 133.417 0.4375 133.935 0.4375C134.456 0.4375 135.458 0.4375 136.219 0.4375C136.771 0.4375 137.219 0.884866 137.219 1.43715C137.219 2.13311 137.219 3.01648 137.219 3.48011C137.219 3.87695 137.23 4.46382 137.241 4.97137C137.254 5.53475 136.802 6 136.238 6C135.487 6 134.513 6 134 6Z" fill="#2B2B2B"/>
<path d="M145.095 8.45455C145.483 8.45455 145.835 8.67826 146 9.02875L147.553 12.3289C147.909 13.0859 148.982 13.0968 149.354 12.3473L151.008 9.01035C151.177 8.66991 151.524 8.45455 151.904 8.45455H156.229C156.985 8.45455 157.468 9.26109 157.11 9.92728L153.186 17.2431C153.024 17.5446 153.028 17.9079 153.195 18.2061L157.304 25.5097C157.679 26.1763 157.197 27 156.432 27H152.174C151.804 27 151.465 26.7963 151.291 26.4702L149.331 22.7904C148.952 22.0789 147.93 22.0854 147.56 22.8018L145.671 26.4588C145.5 26.7912 145.157 27 144.783 27H140.445C139.678 27 139.197 26.1729 139.575 25.5063L143.72 18.205C143.889 17.9075 143.894 17.5443 143.734 17.2421L139.846 9.9237C139.492 9.25765 139.975 8.45455 140.729 8.45455H145.095Z" fill="#2B2B2B"/>
</svg>
